<mxfile host="app.diagrams.net" agent="Mozilla/5.0 (Windows NT 10.0; Win64; x64) AppleWebKit/537.36 (KHTML, like Gecko) Chrome/129.0.0.0 Safari/537.36 Edg/129.0.0.0" version="24.7.16">
  <diagram name="Page-1" id="QCIo1dX5jFZbFA9YtSG0">
    <mxGraphModel dx="786" dy="457" grid="1" gridSize="10" guides="1" tooltips="1" connect="1" arrows="1" fold="1" page="1" pageScale="1" pageWidth="850" pageHeight="1100" math="0" shadow="0">
      <root>
        <mxCell id="0" />
        <mxCell id="1" parent="0" />
        <mxCell id="p2O-rtvyLtHMdL8LGLpl-1" value="User" style="rounded=1;whiteSpace=wrap;html=1;" vertex="1" parent="1">
          <mxGeometry x="40" y="40" width="160" height="60" as="geometry" />
        </mxCell>
        <mxCell id="p2O-rtvyLtHMdL8LGLpl-4" value="EHR System" style="rounded=1;whiteSpace=wrap;html=1;" vertex="1" parent="1">
          <mxGeometry x="210" y="40" width="150" height="60" as="geometry" />
        </mxCell>
        <mxCell id="p2O-rtvyLtHMdL8LGLpl-5" value="Database" style="rounded=1;whiteSpace=wrap;html=1;" vertex="1" parent="1">
          <mxGeometry x="370" y="40" width="150" height="60" as="geometry" />
        </mxCell>
        <mxCell id="p2O-rtvyLtHMdL8LGLpl-6" value="Notification Service" style="rounded=1;whiteSpace=wrap;html=1;" vertex="1" parent="1">
          <mxGeometry x="530" y="40" width="150" height="60" as="geometry" />
        </mxCell>
        <mxCell id="p2O-rtvyLtHMdL8LGLpl-8" value="User" style="rounded=1;whiteSpace=wrap;html=1;" vertex="1" parent="1">
          <mxGeometry x="40" y="2230" width="160" height="60" as="geometry" />
        </mxCell>
        <mxCell id="p2O-rtvyLtHMdL8LGLpl-11" value="EHR System" style="rounded=1;whiteSpace=wrap;html=1;" vertex="1" parent="1">
          <mxGeometry x="210" y="2230" width="150" height="60" as="geometry" />
        </mxCell>
        <mxCell id="p2O-rtvyLtHMdL8LGLpl-12" value="DataBase" style="rounded=1;whiteSpace=wrap;html=1;" vertex="1" parent="1">
          <mxGeometry x="370" y="2230" width="150" height="60" as="geometry" />
        </mxCell>
        <mxCell id="p2O-rtvyLtHMdL8LGLpl-13" value="NotificationService" style="rounded=1;whiteSpace=wrap;html=1;" vertex="1" parent="1">
          <mxGeometry x="530" y="2230" width="150" height="60" as="geometry" />
        </mxCell>
        <mxCell id="p2O-rtvyLtHMdL8LGLpl-14" value="" style="endArrow=none;html=1;rounded=1;entryX=0.5;entryY=1;entryDx=0;entryDy=0;exitX=0.5;exitY=0;exitDx=0;exitDy=0;" edge="1" parent="1" source="p2O-rtvyLtHMdL8LGLpl-8" target="p2O-rtvyLtHMdL8LGLpl-1">
          <mxGeometry width="50" height="50" relative="1" as="geometry">
            <mxPoint x="80" y="170" as="sourcePoint" />
            <mxPoint x="130" y="120" as="targetPoint" />
          </mxGeometry>
        </mxCell>
        <mxCell id="p2O-rtvyLtHMdL8LGLpl-15" value="" style="endArrow=none;html=1;rounded=1;exitX=0.5;exitY=0;exitDx=0;exitDy=0;" edge="1" parent="1">
          <mxGeometry width="50" height="50" relative="1" as="geometry">
            <mxPoint x="119.5" y="2100" as="sourcePoint" />
            <mxPoint x="120" y="100" as="targetPoint" />
            <Array as="points">
              <mxPoint x="119.5" y="1970" />
              <mxPoint x="119.5" y="1130" />
            </Array>
          </mxGeometry>
        </mxCell>
        <mxCell id="p2O-rtvyLtHMdL8LGLpl-16" value="" style="endArrow=none;html=1;rounded=1;exitX=0.547;exitY=0;exitDx=0;exitDy=0;exitPerimeter=0;" edge="1" parent="1" source="p2O-rtvyLtHMdL8LGLpl-11">
          <mxGeometry width="50" height="50" relative="1" as="geometry">
            <mxPoint x="290" y="2220" as="sourcePoint" />
            <mxPoint x="295" y="100" as="targetPoint" />
          </mxGeometry>
        </mxCell>
        <mxCell id="p2O-rtvyLtHMdL8LGLpl-17" value="" style="endArrow=none;html=1;rounded=1;exitX=0.458;exitY=-0.033;exitDx=0;exitDy=0;exitPerimeter=0;" edge="1" parent="1" source="p2O-rtvyLtHMdL8LGLpl-12">
          <mxGeometry width="50" height="50" relative="1" as="geometry">
            <mxPoint x="380" y="260" as="sourcePoint" />
            <mxPoint x="438" y="100" as="targetPoint" />
          </mxGeometry>
        </mxCell>
        <mxCell id="p2O-rtvyLtHMdL8LGLpl-18" value="" style="endArrow=none;html=1;rounded=1;" edge="1" parent="1">
          <mxGeometry width="50" height="50" relative="1" as="geometry">
            <mxPoint x="610" y="2230" as="sourcePoint" />
            <mxPoint x="615" y="100" as="targetPoint" />
          </mxGeometry>
        </mxCell>
        <mxCell id="p2O-rtvyLtHMdL8LGLpl-19" value="" style="shape=link;html=1;rounded=1;" edge="1" parent="1">
          <mxGeometry width="100" relative="1" as="geometry">
            <mxPoint x="119.5" y="230" as="sourcePoint" />
            <mxPoint x="119.5" y="380" as="targetPoint" />
          </mxGeometry>
        </mxCell>
        <mxCell id="p2O-rtvyLtHMdL8LGLpl-22" value="" style="shape=link;html=1;rounded=1;" edge="1" parent="1">
          <mxGeometry width="100" relative="1" as="geometry">
            <mxPoint x="120" y="170" as="sourcePoint" />
            <mxPoint x="119.5" y="280" as="targetPoint" />
          </mxGeometry>
        </mxCell>
        <mxCell id="p2O-rtvyLtHMdL8LGLpl-23" value="" style="shape=link;html=1;rounded=1;" edge="1" parent="1">
          <mxGeometry width="100" relative="1" as="geometry">
            <mxPoint x="119.5" y="450" as="sourcePoint" />
            <mxPoint x="119.5" y="602" as="targetPoint" />
          </mxGeometry>
        </mxCell>
        <mxCell id="p2O-rtvyLtHMdL8LGLpl-25" value="" style="shape=link;html=1;rounded=1;" edge="1" parent="1">
          <mxGeometry width="100" relative="1" as="geometry">
            <mxPoint x="119.5" y="710" as="sourcePoint" />
            <mxPoint x="119.5" y="862" as="targetPoint" />
          </mxGeometry>
        </mxCell>
        <mxCell id="p2O-rtvyLtHMdL8LGLpl-26" value="" style="shape=link;html=1;rounded=1;" edge="1" parent="1">
          <mxGeometry width="100" relative="1" as="geometry">
            <mxPoint x="119.5" y="960" as="sourcePoint" />
            <mxPoint x="120" y="1150" as="targetPoint" />
          </mxGeometry>
        </mxCell>
        <mxCell id="p2O-rtvyLtHMdL8LGLpl-27" value="" style="shape=link;html=1;rounded=1;" edge="1" parent="1">
          <mxGeometry width="100" relative="1" as="geometry">
            <mxPoint x="119.5" y="1190" as="sourcePoint" />
            <mxPoint x="119.5" y="1342" as="targetPoint" />
          </mxGeometry>
        </mxCell>
        <mxCell id="p2O-rtvyLtHMdL8LGLpl-28" value="" style="shape=link;html=1;rounded=1;" edge="1" parent="1">
          <mxGeometry width="100" relative="1" as="geometry">
            <mxPoint x="120" y="1390" as="sourcePoint" />
            <mxPoint x="119.5" y="1572" as="targetPoint" />
          </mxGeometry>
        </mxCell>
        <mxCell id="p2O-rtvyLtHMdL8LGLpl-29" value="" style="shape=link;html=1;rounded=1;" edge="1" parent="1">
          <mxGeometry width="100" relative="1" as="geometry">
            <mxPoint x="119.5" y="1650" as="sourcePoint" />
            <mxPoint x="119.5" y="1802" as="targetPoint" />
          </mxGeometry>
        </mxCell>
        <mxCell id="p2O-rtvyLtHMdL8LGLpl-30" value="" style="shape=link;html=1;rounded=1;" edge="1" parent="1">
          <mxGeometry width="100" relative="1" as="geometry">
            <mxPoint x="119.5" y="2060" as="sourcePoint" />
            <mxPoint x="119.5" y="2212" as="targetPoint" />
          </mxGeometry>
        </mxCell>
        <mxCell id="p2O-rtvyLtHMdL8LGLpl-31" value="" style="endArrow=classic;html=1;rounded=1;" edge="1" parent="1">
          <mxGeometry width="50" height="50" relative="1" as="geometry">
            <mxPoint x="120" y="170" as="sourcePoint" />
            <mxPoint x="290" y="170" as="targetPoint" />
          </mxGeometry>
        </mxCell>
        <mxCell id="p2O-rtvyLtHMdL8LGLpl-74" value="Login" style="edgeLabel;html=1;align=center;verticalAlign=middle;resizable=0;points=[];rounded=1;" vertex="1" connectable="0" parent="p2O-rtvyLtHMdL8LGLpl-31">
          <mxGeometry x="-0.0157" y="3" relative="1" as="geometry">
            <mxPoint as="offset" />
          </mxGeometry>
        </mxCell>
        <mxCell id="p2O-rtvyLtHMdL8LGLpl-32" value="" style="endArrow=classic;html=1;rounded=1;" edge="1" parent="1">
          <mxGeometry width="50" height="50" relative="1" as="geometry">
            <mxPoint x="290" y="200" as="sourcePoint" />
            <mxPoint x="440" y="200" as="targetPoint" />
          </mxGeometry>
        </mxCell>
        <mxCell id="p2O-rtvyLtHMdL8LGLpl-75" value="Validate credentials" style="edgeLabel;html=1;align=center;verticalAlign=middle;resizable=0;points=[];rounded=1;" vertex="1" connectable="0" parent="p2O-rtvyLtHMdL8LGLpl-32">
          <mxGeometry x="-0.0578" relative="1" as="geometry">
            <mxPoint as="offset" />
          </mxGeometry>
        </mxCell>
        <mxCell id="p2O-rtvyLtHMdL8LGLpl-33" value="" style="endArrow=none;dashed=1;html=1;dashPattern=1 3;strokeWidth=2;rounded=1;" edge="1" parent="1">
          <mxGeometry width="50" height="50" relative="1" as="geometry">
            <mxPoint x="300" y="790" as="sourcePoint" />
            <mxPoint x="440" y="790" as="targetPoint" />
          </mxGeometry>
        </mxCell>
        <mxCell id="p2O-rtvyLtHMdL8LGLpl-34" value="" style="endArrow=none;dashed=1;html=1;dashPattern=1 3;strokeWidth=2;rounded=1;" edge="1" parent="1">
          <mxGeometry width="50" height="50" relative="1" as="geometry">
            <mxPoint x="120" y="860" as="sourcePoint" />
            <mxPoint x="290" y="860" as="targetPoint" />
          </mxGeometry>
        </mxCell>
        <mxCell id="p2O-rtvyLtHMdL8LGLpl-86" value="Registration succesful" style="edgeLabel;html=1;align=center;verticalAlign=middle;resizable=0;points=[];rounded=1;" vertex="1" connectable="0" parent="p2O-rtvyLtHMdL8LGLpl-34">
          <mxGeometry x="-0.2863" y="3" relative="1" as="geometry">
            <mxPoint x="19" as="offset" />
          </mxGeometry>
        </mxCell>
        <mxCell id="p2O-rtvyLtHMdL8LGLpl-35" value="" style="endArrow=classic;html=1;rounded=1;" edge="1" parent="1">
          <mxGeometry width="50" height="50" relative="1" as="geometry">
            <mxPoint x="120" y="450" as="sourcePoint" />
            <mxPoint x="290" y="450" as="targetPoint" />
          </mxGeometry>
        </mxCell>
        <mxCell id="p2O-rtvyLtHMdL8LGLpl-78" value="View dashboard" style="edgeLabel;html=1;align=center;verticalAlign=middle;resizable=0;points=[];rounded=1;" vertex="1" connectable="0" parent="p2O-rtvyLtHMdL8LGLpl-35">
          <mxGeometry x="-0.1216" y="-3" relative="1" as="geometry">
            <mxPoint as="offset" />
          </mxGeometry>
        </mxCell>
        <mxCell id="p2O-rtvyLtHMdL8LGLpl-36" value="" style="endArrow=classic;html=1;rounded=1;" edge="1" parent="1">
          <mxGeometry width="50" height="50" relative="1" as="geometry">
            <mxPoint x="120" y="710" as="sourcePoint" />
            <mxPoint x="290" y="710" as="targetPoint" />
          </mxGeometry>
        </mxCell>
        <mxCell id="p2O-rtvyLtHMdL8LGLpl-37" value="" style="endArrow=classic;html=1;rounded=1;" edge="1" parent="1">
          <mxGeometry width="50" height="50" relative="1" as="geometry">
            <mxPoint x="290" y="740" as="sourcePoint" />
            <mxPoint x="440" y="740" as="targetPoint" />
          </mxGeometry>
        </mxCell>
        <mxCell id="p2O-rtvyLtHMdL8LGLpl-84" value="Store patient details" style="edgeLabel;html=1;align=center;verticalAlign=middle;resizable=0;points=[];rounded=1;" vertex="1" connectable="0" parent="p2O-rtvyLtHMdL8LGLpl-37">
          <mxGeometry x="-0.3244" y="-3" relative="1" as="geometry">
            <mxPoint x="19" y="-3" as="offset" />
          </mxGeometry>
        </mxCell>
        <mxCell id="p2O-rtvyLtHMdL8LGLpl-38" value="" style="endArrow=classic;html=1;rounded=1;" edge="1" parent="1">
          <mxGeometry width="50" height="50" relative="1" as="geometry">
            <mxPoint x="120" y="960" as="sourcePoint" />
            <mxPoint x="290" y="960" as="targetPoint" />
          </mxGeometry>
        </mxCell>
        <mxCell id="p2O-rtvyLtHMdL8LGLpl-87" value="Schedule appointment" style="edgeLabel;html=1;align=center;verticalAlign=middle;resizable=0;points=[];rounded=1;" vertex="1" connectable="0" parent="p2O-rtvyLtHMdL8LGLpl-38">
          <mxGeometry x="-0.1098" y="-3" relative="1" as="geometry">
            <mxPoint as="offset" />
          </mxGeometry>
        </mxCell>
        <mxCell id="p2O-rtvyLtHMdL8LGLpl-39" value="" style="endArrow=none;dashed=1;html=1;dashPattern=1 3;strokeWidth=2;rounded=1;" edge="1" parent="1">
          <mxGeometry width="50" height="50" relative="1" as="geometry">
            <mxPoint x="130" y="600" as="sourcePoint" />
            <mxPoint x="290" y="600" as="targetPoint" />
          </mxGeometry>
        </mxCell>
        <mxCell id="p2O-rtvyLtHMdL8LGLpl-40" value="" style="endArrow=classic;html=1;rounded=1;" edge="1" parent="1">
          <mxGeometry width="50" height="50" relative="1" as="geometry">
            <mxPoint x="120" y="1190" as="sourcePoint" />
            <mxPoint x="290" y="1190" as="targetPoint" />
          </mxGeometry>
        </mxCell>
        <mxCell id="p2O-rtvyLtHMdL8LGLpl-93" value="View patient profile" style="edgeLabel;html=1;align=center;verticalAlign=middle;resizable=0;points=[];rounded=1;" vertex="1" connectable="0" parent="p2O-rtvyLtHMdL8LGLpl-40">
          <mxGeometry x="-0.1216" y="-3" relative="1" as="geometry">
            <mxPoint as="offset" />
          </mxGeometry>
        </mxCell>
        <mxCell id="p2O-rtvyLtHMdL8LGLpl-41" value="" style="endArrow=none;dashed=1;html=1;dashPattern=1 3;strokeWidth=2;rounded=1;" edge="1" parent="1">
          <mxGeometry width="50" height="50" relative="1" as="geometry">
            <mxPoint x="120" y="1140" as="sourcePoint" />
            <mxPoint x="290" y="1140" as="targetPoint" />
          </mxGeometry>
        </mxCell>
        <mxCell id="p2O-rtvyLtHMdL8LGLpl-92" value="Appointment scheduled" style="edgeLabel;html=1;align=center;verticalAlign=middle;resizable=0;points=[];rounded=1;" vertex="1" connectable="0" parent="p2O-rtvyLtHMdL8LGLpl-41">
          <mxGeometry x="-0.098" y="1" relative="1" as="geometry">
            <mxPoint as="offset" />
          </mxGeometry>
        </mxCell>
        <mxCell id="p2O-rtvyLtHMdL8LGLpl-42" value="" style="endArrow=classic;html=1;rounded=1;" edge="1" parent="1">
          <mxGeometry width="50" height="50" relative="1" as="geometry">
            <mxPoint x="290" y="1000" as="sourcePoint" />
            <mxPoint x="440" y="1000" as="targetPoint" />
          </mxGeometry>
        </mxCell>
        <mxCell id="p2O-rtvyLtHMdL8LGLpl-88" value="Save appointment details" style="edgeLabel;html=1;align=center;verticalAlign=middle;resizable=0;points=[];rounded=1;" vertex="1" connectable="0" parent="p2O-rtvyLtHMdL8LGLpl-42">
          <mxGeometry x="-0.2844" y="-3" relative="1" as="geometry">
            <mxPoint x="16" y="-3" as="offset" />
          </mxGeometry>
        </mxCell>
        <mxCell id="p2O-rtvyLtHMdL8LGLpl-43" value="" style="endArrow=classic;html=1;rounded=1;" edge="1" parent="1">
          <mxGeometry width="50" height="50" relative="1" as="geometry">
            <mxPoint x="290" y="1240" as="sourcePoint" />
            <mxPoint x="440" y="1240" as="targetPoint" />
          </mxGeometry>
        </mxCell>
        <mxCell id="p2O-rtvyLtHMdL8LGLpl-94" value="Fetch patient details" style="edgeLabel;html=1;align=center;verticalAlign=middle;resizable=0;points=[];rounded=1;" vertex="1" connectable="0" parent="p2O-rtvyLtHMdL8LGLpl-43">
          <mxGeometry x="-0.2711" y="-3" relative="1" as="geometry">
            <mxPoint x="15" y="-3" as="offset" />
          </mxGeometry>
        </mxCell>
        <mxCell id="p2O-rtvyLtHMdL8LGLpl-44" value="" style="endArrow=none;dashed=1;html=1;dashPattern=1 3;strokeWidth=2;rounded=1;" edge="1" parent="1">
          <mxGeometry width="50" height="50" relative="1" as="geometry">
            <mxPoint x="290" y="1040" as="sourcePoint" />
            <mxPoint x="430" y="1040" as="targetPoint" />
          </mxGeometry>
        </mxCell>
        <mxCell id="p2O-rtvyLtHMdL8LGLpl-89" value="Appointment saved" style="edgeLabel;html=1;align=center;verticalAlign=middle;resizable=0;points=[];rounded=1;" vertex="1" connectable="0" parent="p2O-rtvyLtHMdL8LGLpl-44">
          <mxGeometry x="-0.1762" y="1" relative="1" as="geometry">
            <mxPoint x="12" as="offset" />
          </mxGeometry>
        </mxCell>
        <mxCell id="p2O-rtvyLtHMdL8LGLpl-45" value="" style="endArrow=classic;html=1;rounded=1;" edge="1" parent="1">
          <mxGeometry width="50" height="50" relative="1" as="geometry">
            <mxPoint x="120" y="1390" as="sourcePoint" />
            <mxPoint x="290" y="1390" as="targetPoint" />
          </mxGeometry>
        </mxCell>
        <mxCell id="p2O-rtvyLtHMdL8LGLpl-97" value="Manage medications" style="edgeLabel;html=1;align=center;verticalAlign=middle;resizable=0;points=[];rounded=1;" vertex="1" connectable="0" parent="p2O-rtvyLtHMdL8LGLpl-45">
          <mxGeometry x="-0.1569" y="-2" relative="1" as="geometry">
            <mxPoint as="offset" />
          </mxGeometry>
        </mxCell>
        <mxCell id="p2O-rtvyLtHMdL8LGLpl-46" value="" style="endArrow=none;dashed=1;html=1;dashPattern=1 3;strokeWidth=2;rounded=1;" edge="1" parent="1">
          <mxGeometry width="50" height="50" relative="1" as="geometry">
            <mxPoint x="120" y="1340" as="sourcePoint" />
            <mxPoint x="290" y="1340" as="targetPoint" />
          </mxGeometry>
        </mxCell>
        <mxCell id="p2O-rtvyLtHMdL8LGLpl-96" value="Display patient profile" style="edgeLabel;html=1;align=center;verticalAlign=middle;resizable=0;points=[];rounded=1;" vertex="1" connectable="0" parent="p2O-rtvyLtHMdL8LGLpl-46">
          <mxGeometry x="-0.2745" y="3" relative="1" as="geometry">
            <mxPoint x="18" as="offset" />
          </mxGeometry>
        </mxCell>
        <mxCell id="p2O-rtvyLtHMdL8LGLpl-47" value="" style="endArrow=classic;html=1;rounded=1;" edge="1" parent="1">
          <mxGeometry width="50" height="50" relative="1" as="geometry">
            <mxPoint x="120" y="1650" as="sourcePoint" />
            <mxPoint x="290" y="1650" as="targetPoint" />
          </mxGeometry>
        </mxCell>
        <mxCell id="p2O-rtvyLtHMdL8LGLpl-48" value="" style="endArrow=none;dashed=1;html=1;dashPattern=1 3;strokeWidth=2;rounded=1;" edge="1" parent="1">
          <mxGeometry width="50" height="50" relative="1" as="geometry">
            <mxPoint x="120" y="1570" as="sourcePoint" />
            <mxPoint x="290" y="1570" as="targetPoint" />
          </mxGeometry>
        </mxCell>
        <mxCell id="p2O-rtvyLtHMdL8LGLpl-103" value="Medication management&lt;div&gt;succesful&lt;/div&gt;" style="edgeLabel;html=1;align=center;verticalAlign=middle;resizable=0;points=[];rounded=1;" vertex="1" connectable="0" parent="p2O-rtvyLtHMdL8LGLpl-48">
          <mxGeometry x="-0.2863" relative="1" as="geometry">
            <mxPoint x="19" as="offset" />
          </mxGeometry>
        </mxCell>
        <mxCell id="p2O-rtvyLtHMdL8LGLpl-49" value="" style="endArrow=none;dashed=1;html=1;dashPattern=1 3;strokeWidth=2;rounded=1;" edge="1" parent="1">
          <mxGeometry width="50" height="50" relative="1" as="geometry">
            <mxPoint x="300" y="1290" as="sourcePoint" />
            <mxPoint x="440" y="1290" as="targetPoint" />
          </mxGeometry>
        </mxCell>
        <mxCell id="p2O-rtvyLtHMdL8LGLpl-95" value="Patient details" style="edgeLabel;html=1;align=center;verticalAlign=middle;resizable=0;points=[];rounded=1;" vertex="1" connectable="0" parent="p2O-rtvyLtHMdL8LGLpl-49">
          <mxGeometry x="-0.1048" relative="1" as="geometry">
            <mxPoint as="offset" />
          </mxGeometry>
        </mxCell>
        <mxCell id="p2O-rtvyLtHMdL8LGLpl-51" value="" style="endArrow=none;dashed=1;html=1;dashPattern=1 3;strokeWidth=2;rounded=1;" edge="1" parent="1">
          <mxGeometry width="50" height="50" relative="1" as="geometry">
            <mxPoint x="130" y="380" as="sourcePoint" />
            <mxPoint x="300" y="380" as="targetPoint" />
          </mxGeometry>
        </mxCell>
        <mxCell id="p2O-rtvyLtHMdL8LGLpl-52" value="" style="endArrow=classic;html=1;rounded=1;" edge="1" parent="1">
          <mxGeometry width="50" height="50" relative="1" as="geometry">
            <mxPoint x="290" y="500" as="sourcePoint" />
            <mxPoint x="440" y="500" as="targetPoint" />
          </mxGeometry>
        </mxCell>
        <mxCell id="p2O-rtvyLtHMdL8LGLpl-79" value="Fetch dashboard data" style="edgeLabel;html=1;align=center;verticalAlign=middle;resizable=0;points=[];rounded=1;" vertex="1" connectable="0" parent="p2O-rtvyLtHMdL8LGLpl-52">
          <mxGeometry x="-0.2978" y="-1" relative="1" as="geometry">
            <mxPoint x="17" as="offset" />
          </mxGeometry>
        </mxCell>
        <mxCell id="p2O-rtvyLtHMdL8LGLpl-54" value="" style="endArrow=none;dashed=1;html=1;dashPattern=1 3;strokeWidth=2;rounded=1;" edge="1" parent="1">
          <mxGeometry width="50" height="50" relative="1" as="geometry">
            <mxPoint x="310" y="549.9629629629629" as="sourcePoint" />
            <mxPoint x="440" y="549" as="targetPoint" />
          </mxGeometry>
        </mxCell>
        <mxCell id="p2O-rtvyLtHMdL8LGLpl-55" value="" style="endArrow=none;dashed=1;html=1;dashPattern=1 3;strokeWidth=2;rounded=1;" edge="1" parent="1">
          <mxGeometry width="50" height="50" relative="1" as="geometry">
            <mxPoint x="300" y="290" as="sourcePoint" />
            <mxPoint x="440" y="290" as="targetPoint" />
          </mxGeometry>
        </mxCell>
        <mxCell id="p2O-rtvyLtHMdL8LGLpl-76" value="Credentials valid" style="edgeLabel;html=1;align=center;verticalAlign=middle;resizable=0;points=[];rounded=1;" vertex="1" connectable="0" parent="p2O-rtvyLtHMdL8LGLpl-55">
          <mxGeometry x="-0.1048" relative="1" as="geometry">
            <mxPoint as="offset" />
          </mxGeometry>
        </mxCell>
        <mxCell id="p2O-rtvyLtHMdL8LGLpl-56" value="" style="endArrow=none;dashed=1;html=1;dashPattern=1 3;strokeWidth=2;rounded=1;" edge="1" parent="1">
          <mxGeometry width="50" height="50" relative="1" as="geometry">
            <mxPoint x="120" y="1109" as="sourcePoint" />
            <mxPoint x="610" y="1109" as="targetPoint" />
          </mxGeometry>
        </mxCell>
        <mxCell id="p2O-rtvyLtHMdL8LGLpl-91" value="Appointment notification send" style="edgeLabel;html=1;align=center;verticalAlign=middle;resizable=0;points=[];rounded=1;" vertex="1" connectable="0" parent="p2O-rtvyLtHMdL8LGLpl-56">
          <mxGeometry x="0.2435" y="-2" relative="1" as="geometry">
            <mxPoint x="-75" y="-1" as="offset" />
          </mxGeometry>
        </mxCell>
        <mxCell id="p2O-rtvyLtHMdL8LGLpl-57" value="" style="endArrow=classic;html=1;rounded=1;" edge="1" parent="1">
          <mxGeometry width="50" height="50" relative="1" as="geometry">
            <mxPoint x="290" y="1070" as="sourcePoint" />
            <mxPoint x="620" y="1070" as="targetPoint" />
          </mxGeometry>
        </mxCell>
        <mxCell id="p2O-rtvyLtHMdL8LGLpl-90" value="Send appointment notification" style="edgeLabel;html=1;align=center;verticalAlign=middle;resizable=0;points=[];rounded=1;" vertex="1" connectable="0" parent="p2O-rtvyLtHMdL8LGLpl-57">
          <mxGeometry x="-0.0505" y="-2" relative="1" as="geometry">
            <mxPoint as="offset" />
          </mxGeometry>
        </mxCell>
        <mxCell id="p2O-rtvyLtHMdL8LGLpl-58" value="" style="endArrow=classic;html=1;rounded=1;" edge="1" parent="1">
          <mxGeometry width="50" height="50" relative="1" as="geometry">
            <mxPoint x="290" y="1450" as="sourcePoint" />
            <mxPoint x="440" y="1450" as="targetPoint" />
          </mxGeometry>
        </mxCell>
        <mxCell id="p2O-rtvyLtHMdL8LGLpl-98" value="Update medication details" style="edgeLabel;html=1;align=center;verticalAlign=middle;resizable=0;points=[];rounded=1;" vertex="1" connectable="0" parent="p2O-rtvyLtHMdL8LGLpl-58">
          <mxGeometry x="-0.4311" y="3" relative="1" as="geometry">
            <mxPoint x="27" y="3" as="offset" />
          </mxGeometry>
        </mxCell>
        <mxCell id="p2O-rtvyLtHMdL8LGLpl-59" value="" style="endArrow=none;dashed=1;html=1;dashPattern=1 3;strokeWidth=2;rounded=1;" edge="1" parent="1">
          <mxGeometry width="50" height="50" relative="1" as="geometry">
            <mxPoint x="290" y="2150" as="sourcePoint" />
            <mxPoint x="440" y="2150" as="targetPoint" />
          </mxGeometry>
        </mxCell>
        <mxCell id="p2O-rtvyLtHMdL8LGLpl-116" value="Session ended" style="edgeLabel;html=1;align=center;verticalAlign=middle;resizable=0;points=[];rounded=1;" vertex="1" connectable="0" parent="p2O-rtvyLtHMdL8LGLpl-59">
          <mxGeometry x="-0.3244" y="2" relative="1" as="geometry">
            <mxPoint x="19" as="offset" />
          </mxGeometry>
        </mxCell>
        <mxCell id="p2O-rtvyLtHMdL8LGLpl-60" value="" style="shape=link;html=1;rounded=1;" edge="1" parent="1">
          <mxGeometry width="100" relative="1" as="geometry">
            <mxPoint x="119.5" y="1870" as="sourcePoint" />
            <mxPoint x="119.5" y="2022" as="targetPoint" />
          </mxGeometry>
        </mxCell>
        <mxCell id="p2O-rtvyLtHMdL8LGLpl-61" value="" style="endArrow=none;dashed=1;html=1;dashPattern=1 3;strokeWidth=2;rounded=1;" edge="1" parent="1">
          <mxGeometry width="50" height="50" relative="1" as="geometry">
            <mxPoint x="120" y="2210" as="sourcePoint" />
            <mxPoint x="290" y="2210" as="targetPoint" />
          </mxGeometry>
        </mxCell>
        <mxCell id="p2O-rtvyLtHMdL8LGLpl-117" value="Logout succesful" style="edgeLabel;html=1;align=center;verticalAlign=middle;resizable=0;points=[];rounded=1;" vertex="1" connectable="0" parent="p2O-rtvyLtHMdL8LGLpl-61">
          <mxGeometry x="-0.1216" y="-2" relative="1" as="geometry">
            <mxPoint as="offset" />
          </mxGeometry>
        </mxCell>
        <mxCell id="p2O-rtvyLtHMdL8LGLpl-62" value="" style="endArrow=none;dashed=1;html=1;dashPattern=1 3;strokeWidth=2;rounded=1;" edge="1" parent="1">
          <mxGeometry width="50" height="50" relative="1" as="geometry">
            <mxPoint x="125" y="2020" as="sourcePoint" />
            <mxPoint x="295" y="2020" as="targetPoint" />
          </mxGeometry>
        </mxCell>
        <mxCell id="p2O-rtvyLtHMdL8LGLpl-113" value="Display Report" style="edgeLabel;html=1;align=center;verticalAlign=middle;resizable=0;points=[];rounded=1;" vertex="1" connectable="0" parent="p2O-rtvyLtHMdL8LGLpl-62">
          <mxGeometry x="-0.0627" y="2" relative="1" as="geometry">
            <mxPoint as="offset" />
          </mxGeometry>
        </mxCell>
        <mxCell id="p2O-rtvyLtHMdL8LGLpl-63" value="Fetch report data" style="endArrow=classic;html=1;rounded=1;" edge="1" parent="1">
          <mxGeometry width="50" height="50" relative="1" as="geometry">
            <mxPoint x="290" y="1920" as="sourcePoint" />
            <mxPoint x="440" y="1920" as="targetPoint" />
          </mxGeometry>
        </mxCell>
        <mxCell id="p2O-rtvyLtHMdL8LGLpl-64" value="" style="endArrow=classic;html=1;rounded=1;" edge="1" parent="1">
          <mxGeometry width="50" height="50" relative="1" as="geometry">
            <mxPoint x="120" y="1650" as="sourcePoint" />
            <mxPoint x="290" y="1650" as="targetPoint" />
            <Array as="points">
              <mxPoint x="210" y="1650" />
            </Array>
          </mxGeometry>
        </mxCell>
        <mxCell id="p2O-rtvyLtHMdL8LGLpl-104" value="view billing information" style="edgeLabel;html=1;align=center;verticalAlign=middle;resizable=0;points=[];rounded=1;" vertex="1" connectable="0" parent="p2O-rtvyLtHMdL8LGLpl-64">
          <mxGeometry x="-0.2275" y="-2" relative="1" as="geometry">
            <mxPoint x="14" y="-2" as="offset" />
          </mxGeometry>
        </mxCell>
        <mxCell id="p2O-rtvyLtHMdL8LGLpl-65" value="" style="endArrow=classic;html=1;rounded=1;" edge="1" parent="1">
          <mxGeometry width="50" height="50" relative="1" as="geometry">
            <mxPoint x="120" y="1870" as="sourcePoint" />
            <mxPoint x="290" y="1870" as="targetPoint" />
            <Array as="points">
              <mxPoint x="220" y="1870" />
            </Array>
          </mxGeometry>
        </mxCell>
        <mxCell id="p2O-rtvyLtHMdL8LGLpl-110" value="Generate Report" style="edgeLabel;html=1;align=center;verticalAlign=middle;resizable=0;points=[];rounded=1;" vertex="1" connectable="0" parent="p2O-rtvyLtHMdL8LGLpl-65">
          <mxGeometry x="-0.1451" y="-4" relative="1" as="geometry">
            <mxPoint y="-4" as="offset" />
          </mxGeometry>
        </mxCell>
        <mxCell id="p2O-rtvyLtHMdL8LGLpl-67" value="" style="endArrow=classic;html=1;rounded=1;" edge="1" parent="1">
          <mxGeometry width="50" height="50" relative="1" as="geometry">
            <mxPoint x="120" y="2060" as="sourcePoint" />
            <mxPoint x="290" y="2060" as="targetPoint" />
            <Array as="points">
              <mxPoint x="220" y="2060" />
            </Array>
          </mxGeometry>
        </mxCell>
        <mxCell id="p2O-rtvyLtHMdL8LGLpl-114" value="Logout" style="edgeLabel;html=1;align=center;verticalAlign=middle;resizable=0;points=[];rounded=1;" vertex="1" connectable="0" parent="p2O-rtvyLtHMdL8LGLpl-67">
          <mxGeometry x="0.0196" relative="1" as="geometry">
            <mxPoint as="offset" />
          </mxGeometry>
        </mxCell>
        <mxCell id="p2O-rtvyLtHMdL8LGLpl-69" value="" style="endArrow=none;dashed=1;html=1;dashPattern=1 3;strokeWidth=2;rounded=1;" edge="1" parent="1">
          <mxGeometry width="50" height="50" relative="1" as="geometry">
            <mxPoint x="120" y="1800" as="sourcePoint" />
            <mxPoint x="290" y="1800" as="targetPoint" />
          </mxGeometry>
        </mxCell>
        <mxCell id="p2O-rtvyLtHMdL8LGLpl-109" value="Display billing information" style="edgeLabel;html=1;align=center;verticalAlign=middle;resizable=0;points=[];rounded=1;" vertex="1" connectable="0" parent="p2O-rtvyLtHMdL8LGLpl-69">
          <mxGeometry x="-0.2392" y="5" relative="1" as="geometry">
            <mxPoint x="15" y="5" as="offset" />
          </mxGeometry>
        </mxCell>
        <mxCell id="p2O-rtvyLtHMdL8LGLpl-71" value="" style="endArrow=classic;html=1;rounded=1;" edge="1" parent="1">
          <mxGeometry width="50" height="50" relative="1" as="geometry">
            <mxPoint x="290" y="2090" as="sourcePoint" />
            <mxPoint x="440" y="2090" as="targetPoint" />
          </mxGeometry>
        </mxCell>
        <mxCell id="p2O-rtvyLtHMdL8LGLpl-115" value="End session" style="edgeLabel;html=1;align=center;verticalAlign=middle;resizable=0;points=[];rounded=1;" vertex="1" connectable="0" parent="p2O-rtvyLtHMdL8LGLpl-71">
          <mxGeometry x="-0.5778" relative="1" as="geometry">
            <mxPoint x="28" as="offset" />
          </mxGeometry>
        </mxCell>
        <mxCell id="p2O-rtvyLtHMdL8LGLpl-73" value="" style="endArrow=none;dashed=1;html=1;dashPattern=1 3;strokeWidth=2;rounded=1;" edge="1" parent="1">
          <mxGeometry width="50" height="50" relative="1" as="geometry">
            <mxPoint x="290" y="1980" as="sourcePoint" />
            <mxPoint x="440" y="1980" as="targetPoint" />
          </mxGeometry>
        </mxCell>
        <mxCell id="p2O-rtvyLtHMdL8LGLpl-112" value="Report data" style="edgeLabel;html=1;align=center;verticalAlign=middle;resizable=0;points=[];rounded=1;" vertex="1" connectable="0" parent="p2O-rtvyLtHMdL8LGLpl-73">
          <mxGeometry x="-0.2844" y="2" relative="1" as="geometry">
            <mxPoint x="16" as="offset" />
          </mxGeometry>
        </mxCell>
        <mxCell id="p2O-rtvyLtHMdL8LGLpl-100" value="" style="endArrow=none;dashed=1;html=1;dashPattern=1 3;strokeWidth=2;rounded=1;" edge="1" parent="1">
          <mxGeometry width="50" height="50" relative="1" as="geometry">
            <mxPoint x="290" y="1510" as="sourcePoint" />
            <mxPoint x="430" y="1510" as="targetPoint" />
          </mxGeometry>
        </mxCell>
        <mxCell id="p2O-rtvyLtHMdL8LGLpl-102" value="Medication updated" style="edgeLabel;html=1;align=center;verticalAlign=middle;resizable=0;points=[];rounded=1;" vertex="1" connectable="0" parent="p2O-rtvyLtHMdL8LGLpl-100">
          <mxGeometry x="-0.0619" y="-3" relative="1" as="geometry">
            <mxPoint as="offset" />
          </mxGeometry>
        </mxCell>
        <mxCell id="p2O-rtvyLtHMdL8LGLpl-107" value="" style="endArrow=none;dashed=1;html=1;dashPattern=1 3;strokeWidth=2;rounded=1;" edge="1" parent="1">
          <mxGeometry width="50" height="50" relative="1" as="geometry">
            <mxPoint x="300" y="1760" as="sourcePoint" />
            <mxPoint x="440" y="1760" as="targetPoint" />
          </mxGeometry>
        </mxCell>
        <mxCell id="p2O-rtvyLtHMdL8LGLpl-108" value="Billing details" style="edgeLabel;html=1;align=center;verticalAlign=middle;resizable=0;points=[];rounded=1;" vertex="1" connectable="0" parent="p2O-rtvyLtHMdL8LGLpl-107">
          <mxGeometry x="-0.0619" y="-3" relative="1" as="geometry">
            <mxPoint x="-6" y="-3" as="offset" />
          </mxGeometry>
        </mxCell>
        <mxCell id="p2O-rtvyLtHMdL8LGLpl-119" value="" style="endArrow=none;dashed=1;html=1;dashPattern=1 3;strokeWidth=2;rounded=1;" edge="1" parent="1">
          <mxGeometry width="50" height="50" relative="1" as="geometry">
            <mxPoint x="120" y="380" as="sourcePoint" />
            <mxPoint x="120" y="380" as="targetPoint" />
          </mxGeometry>
        </mxCell>
        <mxCell id="p2O-rtvyLtHMdL8LGLpl-120" value="Login succesful" style="edgeLabel;html=1;align=center;verticalAlign=middle;resizable=0;points=[];rounded=1;" vertex="1" connectable="0" parent="p2O-rtvyLtHMdL8LGLpl-119">
          <mxGeometry x="-0.1451" y="2" relative="1" as="geometry">
            <mxPoint x="80" as="offset" />
          </mxGeometry>
        </mxCell>
        <mxCell id="p2O-rtvyLtHMdL8LGLpl-124" value="" style="endArrow=none;dashed=1;html=1;dashPattern=1 3;strokeWidth=2;rounded=1;" edge="1" parent="1">
          <mxGeometry width="50" height="50" relative="1" as="geometry">
            <mxPoint x="120" y="600" as="sourcePoint" />
            <mxPoint x="120" y="600" as="targetPoint" />
          </mxGeometry>
        </mxCell>
        <mxCell id="p2O-rtvyLtHMdL8LGLpl-125" value="Display dashboard" style="edgeLabel;html=1;align=center;verticalAlign=middle;resizable=0;points=[];rounded=1;" vertex="1" connectable="0" parent="p2O-rtvyLtHMdL8LGLpl-124">
          <mxGeometry x="-0.1451" relative="1" as="geometry">
            <mxPoint x="80" as="offset" />
          </mxGeometry>
        </mxCell>
        <mxCell id="p2O-rtvyLtHMdL8LGLpl-135" value="" style="endArrow=none;dashed=1;html=1;dashPattern=1 3;strokeWidth=2;rounded=1;" edge="1" parent="1">
          <mxGeometry width="50" height="50" relative="1" as="geometry">
            <mxPoint x="300" y="549" as="sourcePoint" />
            <mxPoint x="300" y="549" as="targetPoint" />
          </mxGeometry>
        </mxCell>
        <mxCell id="p2O-rtvyLtHMdL8LGLpl-136" value="Dashboard data" style="edgeLabel;html=1;align=center;verticalAlign=middle;resizable=0;points=[];rounded=1;" vertex="1" connectable="0" parent="p2O-rtvyLtHMdL8LGLpl-135">
          <mxGeometry x="-0.1619" y="-1" relative="1" as="geometry">
            <mxPoint x="70" y="1" as="offset" />
          </mxGeometry>
        </mxCell>
        <mxCell id="p2O-rtvyLtHMdL8LGLpl-142" value="" style="endArrow=classic;html=1;rounded=1;" edge="1" parent="1">
          <mxGeometry width="50" height="50" relative="1" as="geometry">
            <mxPoint x="120" y="710" as="sourcePoint" />
            <mxPoint x="120" y="710" as="targetPoint" />
          </mxGeometry>
        </mxCell>
        <mxCell id="p2O-rtvyLtHMdL8LGLpl-143" value="Register new patient" style="edgeLabel;html=1;align=center;verticalAlign=middle;resizable=0;points=[];rounded=1;" vertex="1" connectable="0" parent="p2O-rtvyLtHMdL8LGLpl-142">
          <mxGeometry x="-0.1569" y="1" relative="1" as="geometry">
            <mxPoint x="80" as="offset" />
          </mxGeometry>
        </mxCell>
        <mxCell id="p2O-rtvyLtHMdL8LGLpl-144" value="" style="endArrow=none;dashed=1;html=1;dashPattern=1 3;strokeWidth=2;rounded=1;" edge="1" parent="1">
          <mxGeometry width="50" height="50" relative="1" as="geometry">
            <mxPoint x="300" y="790" as="sourcePoint" />
            <mxPoint x="300" y="790" as="targetPoint" />
          </mxGeometry>
        </mxCell>
        <mxCell id="p2O-rtvyLtHMdL8LGLpl-145" value="Patient registered" style="edgeLabel;html=1;align=center;verticalAlign=middle;resizable=0;points=[];rounded=1;" vertex="1" connectable="0" parent="p2O-rtvyLtHMdL8LGLpl-144">
          <mxGeometry x="-0.3048" y="-2" relative="1" as="geometry">
            <mxPoint x="60" as="offset" />
          </mxGeometry>
        </mxCell>
        <mxCell id="p2O-rtvyLtHMdL8LGLpl-150" value="" style="edgeStyle=orthogonalEdgeStyle;html=1;endArrow=none;elbow=vertical;startArrow=block;startFill=1;strokeColor=#545B64;rounded=0;" edge="1" parent="1">
          <mxGeometry width="100" relative="1" as="geometry">
            <mxPoint x="120" y="380" as="sourcePoint" />
            <mxPoint x="130" y="380" as="targetPoint" />
          </mxGeometry>
        </mxCell>
        <mxCell id="p2O-rtvyLtHMdL8LGLpl-153" value="" style="edgeStyle=orthogonalEdgeStyle;html=1;endArrow=none;elbow=vertical;startArrow=block;startFill=1;strokeColor=#545B64;rounded=0;" edge="1" parent="1">
          <mxGeometry width="100" relative="1" as="geometry">
            <mxPoint x="300" y="290" as="sourcePoint" />
            <mxPoint x="310" y="290" as="targetPoint" />
          </mxGeometry>
        </mxCell>
        <mxCell id="p2O-rtvyLtHMdL8LGLpl-154" value="" style="edgeStyle=orthogonalEdgeStyle;html=1;endArrow=none;elbow=vertical;startArrow=block;startFill=1;strokeColor=#545B64;rounded=0;" edge="1" parent="1">
          <mxGeometry width="100" relative="1" as="geometry">
            <mxPoint x="290" y="549" as="sourcePoint" />
            <mxPoint x="300" y="549" as="targetPoint" />
          </mxGeometry>
        </mxCell>
        <mxCell id="p2O-rtvyLtHMdL8LGLpl-160" value="" style="edgeStyle=orthogonalEdgeStyle;html=1;endArrow=none;elbow=vertical;startArrow=block;startFill=1;strokeColor=#545B64;rounded=0;" edge="1" parent="1">
          <mxGeometry width="100" relative="1" as="geometry">
            <mxPoint x="220" y="670" as="sourcePoint" />
            <mxPoint x="230" y="670" as="targetPoint" />
          </mxGeometry>
        </mxCell>
        <mxCell id="p2O-rtvyLtHMdL8LGLpl-161" value="" style="edgeStyle=orthogonalEdgeStyle;html=1;endArrow=none;elbow=vertical;startArrow=block;startFill=1;strokeColor=#545B64;rounded=0;" edge="1" parent="1">
          <mxGeometry width="100" relative="1" as="geometry">
            <mxPoint x="130" y="860" as="sourcePoint" />
            <mxPoint x="140" y="860" as="targetPoint" />
          </mxGeometry>
        </mxCell>
        <mxCell id="p2O-rtvyLtHMdL8LGLpl-162" value="" style="edgeStyle=orthogonalEdgeStyle;html=1;endArrow=none;elbow=vertical;startArrow=block;startFill=1;strokeColor=#545B64;rounded=0;" edge="1" parent="1">
          <mxGeometry width="100" relative="1" as="geometry">
            <mxPoint x="230" y="670" as="sourcePoint" />
            <mxPoint x="230" y="670" as="targetPoint" />
          </mxGeometry>
        </mxCell>
        <mxCell id="p2O-rtvyLtHMdL8LGLpl-163" value="" style="edgeStyle=orthogonalEdgeStyle;html=1;endArrow=none;elbow=vertical;startArrow=block;startFill=1;strokeColor=#545B64;rounded=0;" edge="1" parent="1">
          <mxGeometry width="100" relative="1" as="geometry">
            <mxPoint x="220" y="670" as="sourcePoint" />
            <mxPoint x="230" y="670" as="targetPoint" />
            <Array as="points">
              <mxPoint x="220" y="670" />
              <mxPoint x="220" y="670" />
            </Array>
          </mxGeometry>
        </mxCell>
        <mxCell id="p2O-rtvyLtHMdL8LGLpl-164" value="" style="edgeStyle=orthogonalEdgeStyle;html=1;endArrow=none;elbow=vertical;startArrow=block;startFill=1;strokeColor=#545B64;rounded=0;" edge="1" parent="1">
          <mxGeometry width="100" relative="1" as="geometry">
            <mxPoint x="290" y="790" as="sourcePoint" />
            <mxPoint x="300" y="790" as="targetPoint" />
            <Array as="points">
              <mxPoint x="290" y="790" />
              <mxPoint x="290" y="790" />
            </Array>
          </mxGeometry>
        </mxCell>
        <mxCell id="p2O-rtvyLtHMdL8LGLpl-166" value="" style="edgeStyle=orthogonalEdgeStyle;html=1;endArrow=none;elbow=vertical;startArrow=block;startFill=1;strokeColor=#545B64;rounded=0;" edge="1" parent="1">
          <mxGeometry width="100" relative="1" as="geometry">
            <mxPoint x="120" y="1110" as="sourcePoint" />
            <mxPoint x="130" y="1110" as="targetPoint" />
            <Array as="points">
              <mxPoint x="120" y="1110" />
              <mxPoint x="120" y="1110" />
            </Array>
          </mxGeometry>
        </mxCell>
        <mxCell id="p2O-rtvyLtHMdL8LGLpl-167" value="" style="endArrow=none;dashed=1;html=1;dashPattern=1 3;strokeWidth=2;rounded=1;" edge="1" parent="1">
          <mxGeometry width="50" height="50" relative="1" as="geometry">
            <mxPoint x="130" y="1109" as="sourcePoint" />
            <mxPoint x="620" y="1109" as="targetPoint" />
          </mxGeometry>
        </mxCell>
        <mxCell id="p2O-rtvyLtHMdL8LGLpl-172" value="" style="edgeStyle=orthogonalEdgeStyle;html=1;endArrow=none;elbow=vertical;startArrow=block;startFill=1;strokeColor=#545B64;rounded=0;" edge="1" parent="1">
          <mxGeometry width="100" relative="1" as="geometry">
            <mxPoint x="300" y="1290" as="sourcePoint" />
            <mxPoint x="310" y="1290" as="targetPoint" />
          </mxGeometry>
        </mxCell>
        <mxCell id="p2O-rtvyLtHMdL8LGLpl-174" value="" style="edgeStyle=orthogonalEdgeStyle;html=1;endArrow=none;elbow=vertical;startArrow=block;startFill=1;strokeColor=#545B64;rounded=0;" edge="1" parent="1">
          <mxGeometry width="100" relative="1" as="geometry">
            <mxPoint x="120" y="1570" as="sourcePoint" />
            <mxPoint x="130" y="1570" as="targetPoint" />
          </mxGeometry>
        </mxCell>
        <mxCell id="p2O-rtvyLtHMdL8LGLpl-175" value="" style="edgeStyle=orthogonalEdgeStyle;html=1;endArrow=none;elbow=vertical;startArrow=block;startFill=1;strokeColor=#545B64;rounded=0;" edge="1" parent="1">
          <mxGeometry width="100" relative="1" as="geometry">
            <mxPoint x="290" y="1040" as="sourcePoint" />
            <mxPoint x="300" y="1040" as="targetPoint" />
          </mxGeometry>
        </mxCell>
        <mxCell id="p2O-rtvyLtHMdL8LGLpl-178" value="" style="edgeStyle=orthogonalEdgeStyle;html=1;endArrow=none;elbow=vertical;startArrow=block;startFill=1;strokeColor=#545B64;rounded=0;" edge="1" parent="1">
          <mxGeometry width="100" relative="1" as="geometry">
            <mxPoint x="120" y="1140" as="sourcePoint" />
            <mxPoint x="130" y="1140" as="targetPoint" />
          </mxGeometry>
        </mxCell>
        <mxCell id="p2O-rtvyLtHMdL8LGLpl-182" value="" style="edgeStyle=orthogonalEdgeStyle;html=1;endArrow=none;elbow=vertical;startArrow=block;startFill=1;strokeColor=#545B64;rounded=0;" edge="1" parent="1">
          <mxGeometry width="100" relative="1" as="geometry">
            <mxPoint x="220" y="1000" as="sourcePoint" />
            <mxPoint x="220" y="1000" as="targetPoint" />
          </mxGeometry>
        </mxCell>
        <mxCell id="p2O-rtvyLtHMdL8LGLpl-183" value="" style="edgeStyle=orthogonalEdgeStyle;html=1;endArrow=none;elbow=vertical;startArrow=block;startFill=1;strokeColor=#545B64;rounded=0;" edge="1" parent="1">
          <mxGeometry width="100" relative="1" as="geometry">
            <mxPoint x="120" y="1340" as="sourcePoint" />
            <mxPoint x="130" y="1340" as="targetPoint" />
          </mxGeometry>
        </mxCell>
        <mxCell id="p2O-rtvyLtHMdL8LGLpl-185" value="" style="edgeStyle=orthogonalEdgeStyle;html=1;endArrow=none;elbow=vertical;startArrow=block;startFill=1;strokeColor=#545B64;rounded=0;" edge="1" parent="1">
          <mxGeometry width="100" relative="1" as="geometry">
            <mxPoint x="290" y="1510" as="sourcePoint" />
            <mxPoint x="300" y="1510" as="targetPoint" />
            <Array as="points">
              <mxPoint x="300" y="1510" />
              <mxPoint x="300" y="1510" />
            </Array>
          </mxGeometry>
        </mxCell>
        <mxCell id="p2O-rtvyLtHMdL8LGLpl-188" value="" style="edgeStyle=orthogonalEdgeStyle;html=1;endArrow=none;elbow=vertical;startArrow=block;startFill=1;strokeColor=#545B64;rounded=0;" edge="1" parent="1">
          <mxGeometry width="100" relative="1" as="geometry">
            <mxPoint x="120" y="1800" as="sourcePoint" />
            <mxPoint x="130" y="1800" as="targetPoint" />
          </mxGeometry>
        </mxCell>
        <mxCell id="p2O-rtvyLtHMdL8LGLpl-193" value="" style="edgeStyle=orthogonalEdgeStyle;html=1;endArrow=none;elbow=vertical;startArrow=block;startFill=1;strokeColor=#545B64;rounded=0;" edge="1" parent="1">
          <mxGeometry width="100" relative="1" as="geometry">
            <mxPoint x="290" y="1760" as="sourcePoint" />
            <mxPoint x="300" y="1760" as="targetPoint" />
          </mxGeometry>
        </mxCell>
        <mxCell id="p2O-rtvyLtHMdL8LGLpl-200" value="" style="edgeStyle=orthogonalEdgeStyle;html=1;endArrow=none;elbow=vertical;startArrow=block;startFill=1;strokeColor=#545B64;rounded=0;" edge="1" parent="1">
          <mxGeometry width="100" relative="1" as="geometry">
            <mxPoint x="290" y="1980" as="sourcePoint" />
            <mxPoint x="300" y="1980" as="targetPoint" />
          </mxGeometry>
        </mxCell>
        <mxCell id="p2O-rtvyLtHMdL8LGLpl-209" value="" style="edgeStyle=orthogonalEdgeStyle;html=1;endArrow=none;elbow=vertical;startArrow=block;startFill=1;strokeColor=#545B64;rounded=0;" edge="1" parent="1">
          <mxGeometry width="100" relative="1" as="geometry">
            <mxPoint x="120" y="2020" as="sourcePoint" />
            <mxPoint x="130" y="2020" as="targetPoint" />
          </mxGeometry>
        </mxCell>
        <mxCell id="p2O-rtvyLtHMdL8LGLpl-210" value="" style="edgeStyle=orthogonalEdgeStyle;html=1;endArrow=none;elbow=vertical;startArrow=block;startFill=1;strokeColor=#545B64;rounded=0;" edge="1" parent="1">
          <mxGeometry width="100" relative="1" as="geometry">
            <mxPoint x="120" y="2210" as="sourcePoint" />
            <mxPoint x="130" y="2210" as="targetPoint" />
          </mxGeometry>
        </mxCell>
        <mxCell id="p2O-rtvyLtHMdL8LGLpl-211" value="" style="edgeStyle=orthogonalEdgeStyle;html=1;endArrow=none;elbow=vertical;startArrow=block;startFill=1;strokeColor=#545B64;rounded=0;" edge="1" parent="1">
          <mxGeometry width="100" relative="1" as="geometry">
            <mxPoint x="290" y="2150" as="sourcePoint" />
            <mxPoint x="300" y="2150" as="targetPoint" />
          </mxGeometry>
        </mxCell>
      </root>
    </mxGraphModel>
  </diagram>
</mxfile>
